<svg width="48" height="48" viewBox="0 0 48 48" fill="none" xmlns="http://www.w3.org/2000/svg">
<path d="M26.8284 24L33.1945 30.3661C33.9744 31.146 33.9789 32.4059 33.1924 33.1924C32.4113 33.9734 31.1453 33.9738 30.3661 33.1945L24 26.8284L17.6339 33.1945C16.854 33.9744 15.5941 33.9789 14.8076 33.1924C14.0266 32.4113 14.0262 31.1453 14.8055 30.3661L21.1716 24L14.8055 17.6339C14.0256 16.854 14.0211 15.5941 14.8076 14.8076C15.5887 14.0266 16.8547 14.0262 17.6339 14.8055L24 21.1716L30.3661 14.8055C31.146 14.0256 32.4059 14.0211 33.1924 14.8076C33.9734 15.5887 33.9738 16.8547 33.1945 17.6339L26.8284 24ZM24 48C10.7452 48 0 37.2548 0 24C0 10.7452 10.7452 0 24 0C37.2548 0 48 10.7452 48 24C48 37.2548 37.2548 48 24 48ZM24 44C35.0457 44 44 35.0457 44 24C44 12.9543 35.0457 4 24 4C12.9543 4 4 12.9543 4 24C4 35.0457 12.9543 44 24 44Z" fill="#AB954C"/>
</svg>
